<svg width="640" height="420" viewBox="0 0 640 420" fill="none" xmlns="http://www.w3.org/2000/svg" role="img" aria-labelledby="title desc">
  <title id="title">Ellie Image Editor 관리자 대시보드 미리보기</title>
  <desc id="desc">보라색 계열의 패널과 그래프가 배치된 관리자 대시보드 화면을 단순화한 일러스트</desc>
  <defs>
    <linearGradient id="bg" x1="0" y1="0" x2="0" y2="1">
      <stop offset="0" stop-color="#ede9fe" />
      <stop offset="1" stop-color="#eef2ff" />
    </linearGradient>
    <linearGradient id="panel" x1="0" y1="0" x2="1" y2="1">
      <stop offset="0" stop-color="#c4b5fd" />
      <stop offset="1" stop-color="#a5b4fc" />
    </linearGradient>
    <linearGradient id="card" x1="0" y1="0" x2="1" y2="1">
      <stop offset="0" stop-color="#f5f3ff" />
      <stop offset="1" stop-color="#e0e7ff" />
    </linearGradient>
  </defs>
  <rect x="0" y="0" width="640" height="420" rx="32" fill="url(#bg)" />
  <rect x="48" y="54" width="544" height="72" rx="18" fill="url(#panel)" opacity="0.9" />
  <rect x="48" y="146" width="544" height="226" rx="22" fill="#ffffff" opacity="0.9" />
  <rect x="72" y="170" width="160" height="74" rx="16" fill="url(#card)" />
  <rect x="252" y="170" width="160" height="74" rx="16" fill="url(#card)" />
  <rect x="432" y="170" width="136" height="74" rx="16" fill="url(#card)" />
  <rect x="72" y="264" width="223" height="80" rx="18" fill="#eef2ff" />
  <path d="M108 312L139 281L158 298L202 254L234 286" stroke="#7c3aed" stroke-width="8" stroke-linecap="round" stroke-linejoin="round" fill="none" />
  <rect x="316" y="264" width="120" height="80" rx="18" fill="#ede9fe" />
  <rect x="452" y="264" width="116" height="80" rx="18" fill="#c7d2fe" />
  <rect x="76" y="64" width="320" height="24" rx="12" fill="#ede9fe" />
  <rect x="76" y="98" width="200" height="16" rx="8" fill="#ede9fe" opacity="0.7" />
  <circle cx="520" cy="90" r="18" fill="#f5f3ff" />
  <circle cx="552" cy="90" r="18" fill="#ede9fe" />
</svg>
